<svg id="Layer_1" data-name="Layer 1" xmlns="http://www.w3.org/2000/svg" viewBox="0 0 546 546"><title>Logo - Art - B&amp;amp;W</title><path d="M283.57.28c34.05-.28,62.36,6.22,90,17C390.61,24,405.72,34,421.44,43.11a208.07,208.07,0,0,1,48.66,39c17.34,18.67,30.06,40,35.8,65.15,1.38,6.06,4.26,11.77,5.72,17.82,4.07,16.91,10.6,33.05,14.68,50,3.6,14.93,10.24,29.1,14.36,43.94,4.3,15.5,7.18,31.15,3.74,47.69-2.25,10.86-5.45,21.08-10.76,30.59a87.35,87.35,0,0,1-12,16.86c-9.3,10-19.12,19.59-29,29.1-8.35,8.07-17.14,15.69-25.54,23.72-7.17,6.84-14.12,13.92-21,21q-39.48,40.4-78.86,80.88c-12.23,12.63-27.12,20.8-43.4,26.78-11.46,4.2-23.25,6.5-35.37,8.39-14.34,2.24-28.62,2.12-42.72,1.18-22.68-1.52-44.61-7.41-65.77-16.09-15.7-6.44-30-15.27-44.44-23.92a283.35,283.35,0,0,1-31.14-21.06c-11.93-9.46-23.29-19.27-33.35-31-9.47-11-16.47-23.12-23-35.76a61,61,0,0,1-3.61-9.18c-4.29-13.11-8.7-26.18-12.66-39.39-4-13.5-7.33-27.23-11.49-40.69-4-12.85-8.54-25.52-13-38.2-6.23-17.48-8.74-35.71-6-53.78a87.27,87.27,0,0,1,24.37-49Q76.66,135.6,128.24,84.5c12-11.94,24-24.12,37.11-34.77C176.06,41.06,184.71,30.19,197,23.1c15.35-8.85,31.21-15.32,48.54-18.81C259.57,1.46,273.59-.29,283.57.28ZM54.67,340.94c6.69,5.12,12.39,10.24,18.79,14.21,11.16,6.94,22.59,13.52,34.24,19.6a296.92,296.92,0,0,0,31.41,14.45c15.34,5.85,30.89,10.88,47.56,12.42,11.76,1.08,23.52,3.6,35.31,3.33,11.12-.24,22.21-2.32,33.29-3.73,19.27-2.45,37.36-8.44,53.17-19.83,10.43-7.51,20.15-16,30-24.32,10.38-8.74,20.44-17.86,30.83-26.6,10.62-8.93,21.91-17.09,32.07-26.5,9.5-8.79,19.34-17.08,29.3-25.33,11.24-9.3,21.6-19.7,32.12-29.85,7.1-6.86,14.68-13.21,21-20.86,4-4.83,7.65-9.77,9.92-15.66a41.69,41.69,0,0,1-4.46-3,156.7,156.7,0,0,0-36.76-25c-5.91-2.83-11.57-6.19-17.45-9.08-11.26-5.53-22.38-11.39-33.93-16.21-21.14-8.83-43.77-11.55-66.26-14-16.14-1.74-32.34.47-48.26,3.8a130,130,0,0,0-67.44,37c-5.75,5.85-11.82,11.39-17.91,16.9q-24.7,22.38-49.54,44.6c-1,.89-1.92,1.86-2.93,2.73-9,7.78-18.16,15.43-27.06,23.34C113,281.12,104.6,289.14,96,297c-6.13,5.58-11.8,11.92-18.69,16.33C67,319.91,61.75,330.15,54.67,340.94Zm483.08-63-2-.24c-.64,1.74-1.4,3.44-1.89,5.22-2.65,9.55-5.63,18.8-11.46,27.16A142.58,142.58,0,0,1,502.15,334c-13.41,12.38-25.93,25.72-38.94,38.54-3.29,3.24-7,6-10.5,9.07-1.72,1.54-3.21,3.33-4.84,5-3,3-6,6-9,8.9-2.62,2.55-5.45,4.92-7.92,7.62-3.79,4.15-7.09,8.76-11,12.75-20,20.17-40.33,40-60,60.37A114.7,114.7,0,0,1,320,503.32a158.79,158.79,0,0,1-57.63,12.09,273,273,0,0,1-34.72-1.58A194.51,194.51,0,0,1,178.94,502c-14.42-5.59-28.16-13.14-41.76-20.61-25.95-14.25-50.43-30.61-70.31-53A19.35,19.35,0,0,0,63.7,426C73,444.13,87,457.58,102.23,470c10.28,8.37,21.74,14.71,33.27,21.14a304.07,304.07,0,0,0,45.82,21.29,227.35,227.35,0,0,0,76.55,13.21,212,212,0,0,0,44.27-4.41,124.93,124.93,0,0,0,41.11-16.36c15-9.4,26.91-22.42,40.74-33.17,10.44-8.12,20.09-17.26,30.15-25.87,3-2.58,6.32-4.79,9.29-7.41,7.21-6.37,14.27-12.91,21.45-19.32,5.44-4.85,10.72-9.92,16.49-14.35a310.32,310.32,0,0,0,33.49-29.66c2.1-2.15,4-4.63,6.45-6.28,11.23-7.56,19.82-17.53,26.72-29,7.26-12.06,11.75-25.13,11.69-39.3C539.69,293,538.45,285.49,537.75,278Zm-482,120-1.31,1.27c3.7,4.56,7.74,8.89,11,13.73,9,13.16,21.74,22.16,34,31.7,13.35,10.41,28.88,17.1,43.81,24.85,18.57,9.63,37.8,17.15,58.36,21,12.6,2.34,25.21,4.64,38.13,4.93,17.26.38,34.38-.51,51.29-4.12a131,131,0,0,0,42.07-16.48c15.61-9.67,28.31-22.78,42.22-34.46,6.85-5.76,13.27-12,20.07-17.84,12.56-10.75,25.31-21.28,37.86-32,6.79-5.82,13.06-12.29,20.08-17.81a343.9,343.9,0,0,0,32.07-28.22,70.45,70.45,0,0,1,6.9-5.59c10.05-7.85,18.15-17.69,25.24-28,10.47-15.19,13.05-32.9,12.3-51.14-.16-3.77-1.29-6.71-4.93-9-.49,1.59-.85,2.49-1,3.43a84,84,0,0,1-15.47,32.89c-4.91,6.51-10.94,12.2-16.7,18-3.92,4-8.4,7.39-12.35,11.32q-45,44.89-89.9,89.94c-5.77,5.8-10.77,12.38-16.61,18.09-11.89,11.61-23.43,23.71-36.34,34.09-22.37,18-49.41,24.46-77.3,26.53a187.6,187.6,0,0,1-53.33-3.49c-20.39-4.36-40.25-10.07-58.79-19.5-13.23-6.73-26-14.49-38.5-22.48-11.12-7.08-22.28-14.19-31.9-23.46C70,409.82,62.76,404.06,55.77,398Zm457.45-166.8a120.41,120.41,0,0,1-27,40.19c-12.29,12-25.27,23.35-37.35,35.58-24,24.36-49.07,47.73-71.81,73.4-11.27,12.73-23.89,24.26-36,36.24a123.83,123.83,0,0,1-30.47,22c-21.11,10.86-44.12,15.09-67.57,16.55-9.19.58-18.45.75-27.72-1.57-7.28-1.82-15.26-.87-22.55-2.65-19.53-4.78-38.95-10.31-56.64-20.15-15.59-8.66-30.78-18.06-46-27.45A170.83,170.83,0,0,1,55.66,375a32,32,0,0,0-4.32-4.16c-1-.72-2.5-.78-5.78-1.71,4.16,5.7,6.62,10,10,13.5,13.14,13.6,26,27.61,42.69,37.14C109.73,426.37,121,433.53,133,439c19.42,8.91,39.16,16.89,60.53,20.86a407.44,407.44,0,0,0,44,5.34c13.94,1,27.62-2,41.28-4.14A128,128,0,0,0,317,448.37c12.14-6.19,22.18-15.49,32.49-24.26,7.33-6.23,14.15-13.06,21.52-19.25,9.86-8.28,20.24-15.95,30-24.32C413.43,370,425.41,359,437.56,348.23c5.95-5.28,12-10.47,17.87-15.82,14.92-13.54,30.41-26.53,44.47-40.91,13.6-13.91,20.89-31.1,19.86-50.82Zm-15.53-15c-1.58,1.72-2.71,2.84-3.72,4.06-5,6.11-9.54,12.74-15.12,18.3-12.91,12.86-26.67,24.89-39.48,37.84-18.49,18.7-37.42,36.94-55.11,56.48-18.57,20.51-38.94,39.39-58.53,59a32.66,32.66,0,0,1-4.33,4.16c-14.22,9.74-29.14,18-46,22.27-16.67,4.26-33.45,7.11-50.71,7-11.92-.09-23.56-2.2-35.3-3.89-23.46-3.39-45.18-11.86-66.11-22.34-11.76-5.89-22.59-13.64-33.92-20.43C76.53,371,64.79,361.91,53.22,352.58a4.83,4.83,0,0,0-1.75-.5c-.66,1.47-1.3,2.93-1.91,4.28,6.5,6.6,12.19,13.84,19.26,19.25,12.83,9.83,26,19.3,40.94,25.95,13,5.78,25.51,12.73,38.67,18.1,14,5.7,28.39,10.28,43.63,11.75,8.81.84,17.49,3.25,26.29,3.68a203.06,203.06,0,0,0,48.33-3.57c22.44-4.32,43.18-11.62,60.54-27q7.06-6.26,14.32-12.29c11.42-9.52,23-18.87,34.3-28.51,11.09-9.44,21.89-19.23,32.92-28.76,13.76-11.89,27.76-23.51,41.39-35.55,10.21-9,19.74-18.8,30-27.74A99.61,99.61,0,0,0,505.83,237c1.73-3.82,2.59-7.44,1.23-11.94C504.24,222.42,501.16,219.51,497.69,216.25ZM370.38,42.51l.4-1.19a65.46,65.46,0,0,0-7.59-3.89c-18.6-6.79-37.91-11.48-57.52-12.55-19.06-1-38.14-.76-57.39,3.06-23.37,4.63-42.5,15.69-60,30.64C174.45,70.44,161.15,83,147.61,95.17l-41.37,37.34q-21,19-42.1,38c-5.67,5.09-11.1,10.56-17.26,15a95,95,0,0,0-25.42,27.54c-9,14.55-12.43,30.08-9.84,48.8,4.5-18.45,12.31-33.17,24.52-45.32,44.2-44,87.59-88.78,133.25-131.27C174,81,178.17,76.08,182.92,71.9c10.18-9,20.7-17.41,32.89-23.67C239.16,36.24,264,31,290.05,30.42c13.29-.28,26.6,0,39.64,2.27,11.92,2.09,23.57,5.65,35.34,8.56C366.81,41.69,368.6,42.09,370.38,42.51ZM19.14,296.2c1.41-3.77,2.27-5.52,2.72-7.38,4.78-19.55,15.59-35.61,29.68-49.42,22.6-22.17,44.25-45.28,67.88-66.46C142,152.72,163.1,130.88,185,109.86c6.21-6,12.89-11.46,19.2-17.34,11.4-10.63,25.45-16.39,39.54-22.26,14.82-6.18,30.6-7.75,46.18-9.44,16.5-1.78,33.3-.69,49.63,2.17,13.51,2.35,26.63,6.95,39.93,10.5a41.05,41.05,0,0,0,5.09.74c-10.3-6.64-21.72-9.77-33.18-12.7-16.31-4.17-32.83-7.05-49.75-7-11.93.06-23.92-.74-35.68,2.06-9.87,2.34-20,4.07-29.44,7.69A113.24,113.24,0,0,0,194.6,92.17c-1.84,1.94-3.75,3.83-5.76,5.57-8.76,7.58-17.77,14.89-26.33,22.69-12,11-23.78,22.3-35.65,33.47-.73.69-1.46,1.37-2.22,2-8.55,7.31-17.2,14.51-25.65,22-8,7-15.68,14.34-23.61,21.42C64,209.45,52,218.94,41.28,229.77,23.75,247.5,17.82,269.65,19.14,296.2ZM388.05,102.91c.25-.71.5-1.42.74-2.14-11.36-3.11-22-8.31-33.79-10.32-9.4-1.6-18.57-4.54-28.28-3.89a6,6,0,0,1-2-.29c-12.12-3.43-24.62-2.31-36.66-1.13s-24,3.16-35.59,7.2c-11.37,3.94-22.13,8.84-31.67,15.94-7.42,5.52-13.89,12.3-20.8,18.51q-19.24,17.27-38.49,34.53c-1.49,1.34-2.8,2.88-4.32,4.18-8.54,7.31-17.25,14.43-25.65,21.89-9.18,8.17-18,16.69-27.13,25C98.81,217.48,93,222.43,87.3,227.47,75.88,237.57,64.64,247.86,53,257.72c-14.2,12.06-19.91,28.45-23.84,45.7-.8,3.52-1.89,8.06,2.68,11.16,1-1.84,2.17-3.43,2.71-5.22,4-13.37,11.74-24.63,21.36-34.16C85.05,246.37,113,216.4,143.57,189c21-18.91,40.92-39.1,61.15-58.9,14-13.71,30.62-23.08,48.87-29.55a166.53,166.53,0,0,1,59.07-9.92c8.26.15,16.46,1,24.68,1.66,12.56,1.06,24.62,4,36.8,6.67C378.84,100,383.42,101.56,388.05,102.91Zm7.88,29.77.92-1a24.12,24.12,0,0,0-3.36-2c-24.12-9.54-49.44-13.11-75.09-15-9-.66-17.78,1.18-26.67,1.85a131.47,131.47,0,0,0-34.53,7.54c-16.94,6.09-31.68,16.32-44.95,28.6-14.86,13.75-29.93,27.28-44.88,40.93q-23.91,21.83-47.77,43.7c-1,.9-1.91,1.86-2.93,2.72-7.84,6.6-15.82,13-23.51,19.82C84.69,267.33,77.12,276,68,282.5c-10.8,7.72-16.73,18.53-22.6,29.59-2.41,4.55-3.6,9.75-5.52,15.13l6.22,5.11c6.81-11.12,13.57-21.63,22.81-30.44,30.13-28.77,58.21-59.62,89.29-87.48,20.32-18.21,39.24-38,59.18-56.63a125.28,125.28,0,0,1,20.68-15.23c25.21-15.32,53.39-20,82.25-21.86,8.64-.56,17.15.49,25.66,1.92,7.12,1.19,14.38,1.66,21.43,3.12C377,127.71,386.43,130.33,395.93,132.68Z"/></svg>