<svg id="Layer_1" data-name="Layer 1" xmlns="http://www.w3.org/2000/svg" viewBox="0 0 892 158" fill="currentColor"><title>Logo - Full - B&amp;amp;W</title><path d="M81.71.38a67.06,67.06,0,0,1,25.93,4.91c4.93,1.93,9.28,4.82,13.82,7.43a60.53,60.53,0,0,1,14,11.24A40.69,40.69,0,0,1,145.8,42.74c.4,1.75,1.23,3.4,1.65,5.14,1.18,4.88,3.06,9.53,4.24,14.42,1,4.3,2.95,8.39,4.14,12.66,1.24,4.47,2.07,9,1.08,13.75a30.56,30.56,0,0,1-3.11,8.82,24.85,24.85,0,0,1-3.47,4.86c-2.68,2.89-5.51,5.65-8.35,8.39-2.41,2.33-4.94,4.52-7.36,6.84-2.07,2-4.07,4-6.07,6.06Q117.17,135.32,105.81,147a32.46,32.46,0,0,1-12.51,7.72,52.68,52.68,0,0,1-10.19,2.42,55.36,55.36,0,0,1-12.32.34,60.71,60.71,0,0,1-19-4.64A96.2,96.2,0,0,1,39,145.94a81.77,81.77,0,0,1-9-6.08,67.64,67.64,0,0,1-9.62-8.93,52,52,0,0,1-6.63-10.31,18.33,18.33,0,0,1-1-2.64c-1.24-3.78-2.5-7.55-3.65-11.36S7,98.77,5.79,94.89c-1.15-3.7-2.46-7.36-3.76-11A31.8,31.8,0,0,1,.3,68.37a25.15,25.15,0,0,1,7-14.12Q22.05,39.39,36.93,24.66c3.47-3.44,6.91-7,10.7-10C50.72,12.13,53.21,9,56.76,7a45.93,45.93,0,0,1,14-5.43A47.24,47.24,0,0,1,81.71.38Zm-66,98.21c1.93,1.47,3.57,3,5.42,4.09,3.21,2,6.51,3.9,9.87,5.66a86,86,0,0,0,9.05,4.16,51.61,51.61,0,0,0,13.71,3.58c3.39.31,6.78,1,10.18,1a91.53,91.53,0,0,0,9.6-1.08,32.8,32.8,0,0,0,15.33-5.71c3-2.17,5.81-4.62,8.65-7s5.89-5.15,8.89-7.67,6.31-4.93,9.24-7.64c2.74-2.54,5.58-4.93,8.45-7.3,3.24-2.69,6.22-5.68,9.26-8.61a79.91,79.91,0,0,0,6.06-6,16.24,16.24,0,0,0,2.86-4.52,13.37,13.37,0,0,1-1.28-.87,45.53,45.53,0,0,0-10.6-7.21c-1.71-.81-3.34-1.78-5-2.61-3.25-1.6-6.46-3.29-9.79-4.68-6.09-2.54-12.61-3.33-19.1-4a44.41,44.41,0,0,0-13.91,1.09A37.45,37.45,0,0,0,63.14,53.87c-1.66,1.68-3.41,3.28-5.16,4.87C53.23,63,48.45,67.31,43.69,71.6c-.28.26-.55.54-.84.79-2.6,2.24-5.24,4.44-7.8,6.72s-4.94,4.54-7.41,6.8a43.5,43.5,0,0,1-5.4,4.7C19.26,92.52,17.76,95.48,15.72,98.59ZM155,80.44l-.58-.07c-.18.5-.4,1-.54,1.5a25.21,25.21,0,0,1-3.3,7.83,40.88,40.88,0,0,1-5.85,6.89c-3.86,3.57-7.47,7.42-11.22,11.12-.95.93-2,1.72-3,2.61-.49.44-.92,1-1.4,1.43-.86.86-1.72,1.72-2.59,2.57s-1.57,1.42-2.29,2.19c-1.09,1.2-2,2.53-3.18,3.68-5.75,5.81-11.62,11.52-17.31,17.4a33,33,0,0,1-11.5,7.81,45.85,45.85,0,0,1-16.61,3.48,78.07,78.07,0,0,1-10-.45,56,56,0,0,1-14-3.42,103.43,103.43,0,0,1-12-5.94C32,135,25,130.24,19.24,123.79a5.21,5.21,0,0,0-.92-.68c2.68,5.23,6.72,9.1,11.11,12.68a64.81,64.81,0,0,0,9.59,6.1A87.92,87.92,0,0,0,52.23,148a65.66,65.66,0,0,0,22.07,3.8,61.1,61.1,0,0,0,12.76-1.27,36,36,0,0,0,11.85-4.71c4.32-2.71,7.76-6.47,11.75-9.57,3-2.34,5.79-5,8.69-7.46.87-.74,1.82-1.38,2.68-2.13,2.08-1.84,4.11-3.72,6.18-5.57,1.57-1.4,3.09-2.86,4.76-4.14a89,89,0,0,0,9.65-8.55,13.8,13.8,0,0,1,1.86-1.81,25.9,25.9,0,0,0,7.71-8.36,21.71,21.71,0,0,0,3.37-11.33C155.55,84.77,155.19,82.6,155,80.44ZM16,115l-.38.37c1.07,1.31,2.23,2.56,3.18,4,2.58,3.79,6.26,6.39,9.79,9.13,3.85,3,8.33,4.94,12.63,7.17a60.76,60.76,0,0,0,16.83,6.05,69.72,69.72,0,0,0,11,1.42A63.79,63.79,0,0,0,83.87,142,37.79,37.79,0,0,0,96,137.2c4.5-2.79,8.17-6.57,12.17-9.94,2-1.66,3.83-3.46,5.79-5.14,3.62-3.1,7.3-6.13,10.92-9.23,1.95-1.68,3.76-3.55,5.79-5.14a100.42,100.42,0,0,0,9.24-8.13,20.68,20.68,0,0,1,2-1.62,35.74,35.74,0,0,0,7.28-8.06c3-4.38,3.76-9.49,3.54-14.75a2.85,2.85,0,0,0-1.42-2.58c-.14.46-.24.72-.3,1a24.21,24.21,0,0,1-4.46,9.48,53.77,53.77,0,0,1-4.82,5.2c-1.13,1.14-2.42,2.13-3.56,3.26q-13,12.94-25.91,25.93c-1.67,1.67-3.11,3.57-4.79,5.22C104,126,100.69,129.52,97,132.51c-6.45,5.18-14.24,7.05-22.28,7.65a54.23,54.23,0,0,1-15.38-1,68.78,68.78,0,0,1-17-5.63c-3.81-1.94-7.48-4.18-11.1-6.48a57.06,57.06,0,0,1-9.19-6.76C20.15,118.44,18.05,116.78,16,115ZM147.92,67a34.71,34.71,0,0,1-7.79,11.58c-3.54,3.47-7.28,6.73-10.76,10.26-6.94,7-14.15,13.76-20.71,21.16-3.25,3.67-6.89,7-10.38,10.45a35.8,35.8,0,0,1-8.78,6.34c-6.09,3.13-12.72,4.35-19.48,4.77a25.64,25.64,0,0,1-8-.45c-2.1-.53-4.4-.25-6.5-.77-5.63-1.37-11.23-3-16.33-5.8-4.5-2.5-8.88-5.21-13.25-7.92A49.64,49.64,0,0,1,16,108.42a8.78,8.78,0,0,0-1.24-1.2,6.78,6.78,0,0,0-1.67-.49A39.48,39.48,0,0,0,16,110.62c3.79,3.92,7.5,8,12.31,10.7,3.31,1.9,6.55,4,10,5.55a74.74,74.74,0,0,0,17.45,6,118.43,118.43,0,0,0,12.69,1.54c4,.3,8-.58,11.9-1.2a36.73,36.73,0,0,0,11-3.66c3.5-1.79,6.39-4.47,9.37-7,2.11-1.79,4.08-3.76,6.2-5.54,2.84-2.39,5.83-4.61,8.66-7,3.56-3,7-6.2,10.51-9.31,1.72-1.52,3.46-3,5.16-4.56,4.3-3.91,8.76-7.65,12.82-11.8a19,19,0,0,0,5.72-14.65Zm-4.48-4.32c-.46.5-.78.82-1.07,1.17-1.45,1.76-2.75,3.67-4.36,5.28-3.73,3.7-7.69,7.17-11.38,10.91-5.34,5.39-10.79,10.64-15.89,16.28-5.35,5.91-11.23,11.35-16.88,17a8.78,8.78,0,0,1-1.24,1.2,41.7,41.7,0,0,1-13.28,6.42,57.35,57.35,0,0,1-14.62,2,75.66,75.66,0,0,1-10.18-1.13,62.09,62.09,0,0,1-19-6.44c-3.4-1.69-6.52-3.93-9.78-5.89a92.65,92.65,0,0,1-10.41-7.52,1.65,1.65,0,0,0-.5-.14L14.25,103a55.91,55.91,0,0,0,5.55,5.55,59.61,59.61,0,0,0,11.8,7.48c3.75,1.67,7.35,3.67,11.15,5.22a45,45,0,0,0,12.58,3.39c2.54.24,5,.94,7.58,1.06a58.28,58.28,0,0,0,13.93-1c6.47-1.24,12.45-3.35,17.45-7.78q2-1.8,4.13-3.54c3.29-2.74,6.63-5.44,9.89-8.22s6.31-5.54,9.49-8.29c4-3.43,8-6.78,11.93-10.25,3-2.6,5.69-5.42,8.65-8a28.83,28.83,0,0,0,7.41-10,4.64,4.64,0,0,0,.35-3.45Zm-36.7-50.09.11-.34a17.39,17.39,0,0,0-2.19-1.12A57.59,57.59,0,0,0,88.08,7.47a65.8,65.8,0,0,0-16.54.88,37.35,37.35,0,0,0-17.29,8.83c-4,3.42-7.83,7-11.74,10.55L30.59,38.5l-12.14,11a61.62,61.62,0,0,1-5,4.32,27.33,27.33,0,0,0-7.32,7.94A20.15,20.15,0,0,0,3.31,75.79a26.67,26.67,0,0,1,7.07-13.07C23.12,50,35.63,37.13,48.79,24.88c1.34-1.25,2.53-2.65,3.9-3.86a47.42,47.42,0,0,1,9.49-6.82,48.18,48.18,0,0,1,21.4-5.13A59,59,0,0,1,95,9.72c3.43.6,6.79,1.63,10.18,2.47ZM5.48,85.69c.4-1.09.65-1.59.78-2.13a29.86,29.86,0,0,1,8.56-14.25c6.51-6.39,12.75-13.05,19.57-19.16C40.89,44.32,47,38,53.28,32c1.79-1.72,3.72-3.31,5.54-5,3.28-3.06,7.34-4.73,11.4-6.42,4.27-1.78,8.82-2.23,13.31-2.72a51.63,51.63,0,0,1,14.31.62c3.89.68,7.68,2,11.51,3a12.12,12.12,0,0,0,1.47.22A31.45,31.45,0,0,0,101.25,18a56.45,56.45,0,0,0-14.34-2c-3.44,0-6.9-.22-10.28.59a63.76,63.76,0,0,0-8.49,2.22,32.5,32.5,0,0,0-12.08,8,22.76,22.76,0,0,1-1.66,1.6c-2.53,2.19-5.12,4.3-7.59,6.54-3.47,3.17-6.86,6.43-10.28,9.65-.21.2-.42.4-.64.59-2.46,2.11-5,4.18-7.39,6.32S24,55.71,21.69,57.75c-3.28,2.93-6.75,5.66-9.83,8.79C6.81,71.65,5.1,78,5.48,85.69ZM111.83,30l.21-.61c-3.27-.9-6.33-2.4-9.74-3-2.71-.46-5.35-1.31-8.15-1.12a1.87,1.87,0,0,1-.57-.08c-3.49-1-7.09-.67-10.57-.33a44.31,44.31,0,0,0-10.26,2.08,33.45,33.45,0,0,0-9.13,4.59c-2.13,1.59-4,3.55-6,5.34L46.53,46.8c-.43.39-.8.83-1.24,1.21-2.46,2.11-5,4.16-7.4,6.31-2.65,2.35-5.2,4.81-7.82,7.2-1.62,1.47-3.3,2.9-4.94,4.35-3.3,2.91-6.54,5.88-9.89,8.73-4.09,3.47-5.74,8.2-6.87,13.17-.23,1-.54,2.32.77,3.22a8.69,8.69,0,0,0,.78-1.51,23.26,23.26,0,0,1,6.16-9.84c8.4-8.32,16.47-17,25.27-24.87,6.06-5.45,11.8-11.27,17.63-17a37.93,37.93,0,0,1,14.09-8.52,48.11,48.11,0,0,1,17-2.86c2.38.05,4.74.28,7.11.48a82.17,82.17,0,0,1,10.61,1.93C109.17,29.11,110.49,29.58,111.83,30Zm2.27,8.59.27-.3a6.76,6.76,0,0,0-1-.56c-7-2.75-14.25-3.78-21.65-4.32a50.71,50.71,0,0,0-7.69.53A36.48,36.48,0,0,0,61.15,44.32c-4.29,4-8.63,7.86-12.94,11.8q-6.9,6.29-13.77,12.6c-.28.26-.55.53-.85.78-2.26,1.9-4.56,3.76-6.77,5.71-2.45,2.16-4.63,4.65-7.26,6.53-3.11,2.22-4.82,5.34-6.51,8.53a32.19,32.19,0,0,0-1.59,4.36l1.79,1.47a41.74,41.74,0,0,1,6.58-8.77C28.51,79,36.61,70.14,45.57,62.11c5.86-5.25,11.31-11,17.06-16.33a36.78,36.78,0,0,1,6-4.39C75.86,37,84,35.63,92.3,35.09a32.23,32.23,0,0,1,7.4.55c2,.35,4.15.48,6.18.9C108.64,37.11,111.36,37.87,114.1,38.55Z"/><path d="M193.24,47.28h63.88v16H233.31v47.45H216.52V63.27H193.24Z"/><path d="M312.74,47.28A33.28,33.28,0,0,1,323.8,49.1,25.08,25.08,0,0,1,333,54.7a26.17,26.17,0,0,1,6.22,9.55,37.4,37.4,0,0,1,2.27,13.68c0,1,0,1.91-.05,2.71s0,1.53,0,2.18-.12,1.45-.18,2H278.89a22.65,22.65,0,0,0,1.2,4,10.39,10.39,0,0,0,2,3.15,8.49,8.49,0,0,0,3.11,2.09,11.58,11.58,0,0,0,4.35.75h23.1c3.32,0,5.75-.39,7.29-1.19a7.14,7.14,0,0,0,3.37-4.14h17.86a21.63,21.63,0,0,1-2.75,8,23.21,23.21,0,0,1-4.84,5.73,25.48,25.48,0,0,1-6.13,3.82,40.68,40.68,0,0,1-6.8,2.31,44,44,0,0,1-6.71,1.11q-3.24.27-5.91.27H294.17q-2.84,0-6.44-.31A37,37,0,0,1,280.4,109a32,32,0,0,1-7.24-3.2,23.38,23.38,0,0,1-6.31-5.6,27.37,27.37,0,0,1-4.48-8.71A40.46,40.46,0,0,1,260.68,79a40.46,40.46,0,0,1,1.69-12.48,27.37,27.37,0,0,1,4.48-8.71,23.55,23.55,0,0,1,6.31-5.6A32.45,32.45,0,0,1,280.4,49a37,37,0,0,1,7.33-1.42c2.4-.2,4.55-.31,6.44-.31Zm-23.19,16a11.58,11.58,0,0,0-4.35.76,8.49,8.49,0,0,0-3.11,2.09,10.39,10.39,0,0,0-2,3.15,22.65,22.65,0,0,0-1.2,4h44.42c-.06-3.62-1-6.18-2.84-7.69s-4.44-2.27-7.82-2.27Z"/><path d="M375.64,63.27a10.2,10.2,0,0,0-5.5,1.34,9.8,9.8,0,0,0-3.38,3.51,15,15,0,0,0-1.73,5,35.29,35.29,0,0,0,0,11.72,15.57,15.57,0,0,0,1.73,5.07,9.68,9.68,0,0,0,3.38,3.55,10.21,10.21,0,0,0,5.5,1.33h23.1c3.38,0,5.84-.82,7.38-2.48s2.63-4.18,3.29-7.55h17.85A32.57,32.57,0,0,1,424.55,95a26.44,26.44,0,0,1-4.79,7.11,23.06,23.06,0,0,1-6.13,4.57,35.17,35.17,0,0,1-6.8,2.62,38.07,38.07,0,0,1-6.75,1.2c-2.2.18-4.18.27-6,.27H380.26q-2.83,0-6.44-.31a37,37,0,0,1-7.33-1.42,32.19,32.19,0,0,1-7.24-3.2,23.38,23.38,0,0,1-6.31-5.6,27.37,27.37,0,0,1-4.48-8.71A40.46,40.46,0,0,1,346.77,79a40.46,40.46,0,0,1,1.69-12.48,27.37,27.37,0,0,1,4.48-8.71,23.55,23.55,0,0,1,6.31-5.6,32.65,32.65,0,0,1,7.24-3.2,37,37,0,0,1,7.33-1.42c2.4-.2,4.55-.31,6.44-.31h13.86c1.78,0,3.76.09,6,.27a38.07,38.07,0,0,1,6.75,1.2,35.17,35.17,0,0,1,6.8,2.62,23.06,23.06,0,0,1,6.13,4.57,26.44,26.44,0,0,1,4.79,7.11,32.63,32.63,0,0,1,2.71,10.18H409.41a13,13,0,0,0-3.11-7.29q-2.49-2.67-7.56-2.67Z"/><path d="M498.34,47.28h16.79v63.44H498.34V86.46H451.16v24.26H434.37V47.28h16.79V71.63h47.18Z"/><path d="M624.86,47.28h16.88V79a40.46,40.46,0,0,1-1.69,12.48,27.18,27.18,0,0,1-4.49,8.71,23.2,23.2,0,0,1-6.3,5.6A32.19,32.19,0,0,1,622,109a37.15,37.15,0,0,1-7.33,1.42q-3.6.32-6.45.31h-.8c-1.71,0-3.64-.09-5.77-.27a44.12,44.12,0,0,1-6.53-1.06,33.2,33.2,0,0,1-6.62-2.4,25,25,0,0,1-6.13-4.27A23,23,0,0,1,576.3,107a34.23,34.23,0,0,1-6.66,2.4,44.12,44.12,0,0,1-6.53,1.06c-2.13.18-4.06.27-5.77.27h-.72q-2.83,0-6.44-.31a37,37,0,0,1-7.33-1.42,33.08,33.08,0,0,1-7.28-3.2,22.52,22.52,0,0,1-6.31-5.6,27.73,27.73,0,0,1-4.44-8.71A40.46,40.46,0,0,1,523.13,79V47.28h16.79V79.89a31.93,31.93,0,0,0,.49,5.73,13.55,13.55,0,0,0,1.73,4.75,9,9,0,0,0,3.42,3.25,11.43,11.43,0,0,0,5.56,1.19h11.72a11.48,11.48,0,0,0,5.56-1.19,9,9,0,0,0,3.42-3.25,13.75,13.75,0,0,0,1.73-4.75,32.87,32.87,0,0,0,.49-5.73V47.28h16.79V79.89a31.93,31.93,0,0,0,.49,5.73,13.55,13.55,0,0,0,1.73,4.75,9.09,9.09,0,0,0,3.38,3.25,11.14,11.14,0,0,0,5.51,1.19h11.81a11.17,11.17,0,0,0,5.51-1.19,9.09,9.09,0,0,0,3.38-3.25,13.75,13.75,0,0,0,1.73-4.75,31.93,31.93,0,0,0,.49-5.73Z"/><path d="M697.09,47.73c1.9,0,4,.1,6.44.31a36.23,36.23,0,0,1,7.29,1.42,34.48,34.48,0,0,1,7.24,3.15,22.06,22.06,0,0,1,6.31,5.56,28.21,28.21,0,0,1,4.44,8.7,40.88,40.88,0,0,1,1.69,12.49v31.36H713.71V95.08H666.53v15.64H649.74V79.36a40.9,40.9,0,0,1,1.68-12.49,27.43,27.43,0,0,1,4.49-8.7,22.88,22.88,0,0,1,6.31-5.56,33.18,33.18,0,0,1,7.24-3.15A37,37,0,0,1,676.79,48c2.4-.21,4.54-.31,6.44-.31Zm16.62,32.51V78.47a32.07,32.07,0,0,0-.49-5.69,13.85,13.85,0,0,0-1.74-4.71,9.12,9.12,0,0,0-3.37-3.24,11.16,11.16,0,0,0-5.51-1.2H677.72a11.41,11.41,0,0,0-5.55,1.2,9,9,0,0,0-3.42,3.24A13.64,13.64,0,0,0,667,72.78a31.16,31.16,0,0,0-.49,5.69v1.77Z"/><path d="M794.2,47.28H813l-32,63.44H760.71l-32-63.44h18.84l23.36,49.49Z"/><path d="M863.32,47.28a33.28,33.28,0,0,1,11.06,1.82,25.2,25.2,0,0,1,9.16,5.6,26.28,26.28,0,0,1,6.21,9.55A37.19,37.19,0,0,1,892,77.93c0,1,0,1.91,0,2.71s-.05,1.53-.05,2.18-.12,1.45-.18,2H829.47a22.65,22.65,0,0,0,1.2,4,10.39,10.39,0,0,0,2,3.15,8.57,8.57,0,0,0,3.11,2.09,11.58,11.58,0,0,0,4.35.75h23.1c3.32,0,5.75-.39,7.29-1.19a7.19,7.19,0,0,0,3.38-4.14h17.85a21.63,21.63,0,0,1-2.75,8,23,23,0,0,1-4.84,5.73A25.48,25.48,0,0,1,878,107a40.38,40.38,0,0,1-6.8,2.31,44,44,0,0,1-6.71,1.11q-3.24.27-5.91.27H844.75q-2.84,0-6.44-.31A37,37,0,0,1,831,109a32,32,0,0,1-7.24-3.2,23.38,23.38,0,0,1-6.31-5.6A27.37,27.37,0,0,1,813,91.48,40.46,40.46,0,0,1,811.26,79,40.46,40.46,0,0,1,813,66.52a27.37,27.37,0,0,1,4.48-8.71,23.55,23.55,0,0,1,6.31-5.6A32.45,32.45,0,0,1,831,49a37,37,0,0,1,7.33-1.42c2.4-.2,4.55-.31,6.44-.31Zm-23.19,16a11.58,11.58,0,0,0-4.35.76,8.57,8.57,0,0,0-3.11,2.09,10.39,10.39,0,0,0-2,3.15,22.65,22.65,0,0,0-1.2,4H873.9q-.09-5.43-2.85-7.69t-7.82-2.27Z"/></svg>